PathFileType	4	(X/Y/Z)	4_coords_data.trc
DataRate	CameraRate	NumFrames	NumMarkers	Units	OrigDataRate	OrigDataStartFrame	OrigNumFrames
30.0	30.0	5	21	m	30.0	11	50
Frame#	Time	THUMB_TIP	THUMB_IP	THUMB_MCP	THUMB_CMC	INDEX_TIP	INDEX_DIP	INDEX_PIP	INDEX_MCP	MIDDLE_TIP	MIDDLE_DIP	MIDDLE_PIP	MIDDLE_MCP	RING_TIP	RING_DIP	RING_PIP	RING_MCP	PINKY_TIP	PINKY_DIP	PINKY_PIP	PINKY_MCP	WRIST
X1	Y1	Z1	X2	Y2	Z2	X3	Y3	Z3	X4	Y4	Z4	X5	Y5	Z5	X6	Y6	Z6	X7	Y7	Z7	X8	Y8	Z8	X9	Y9	Z9	X10	Y10	Z10	X11	Y11	Z11	X12	Y12	Z12	X13	Y13	Z13	X14	Y14	Z14	X15	Y15	Z15	X16	Y16	Z16	X17	Y17	Z17	X18	Y18	Z18	X19	Y19	Z19	X20	Y20	Z20	X21	Y21	Z21
9	0.33333333333333187	0.5071680636260092	-0.009338913326952913	-0.1631128224987089	0.49862135728597856	-0.014897018219209635	-0.14252007424249136	0.479547113151495	-0.02575168589896637	-0.12044815995622765	0.4774789335898121	-0.027196777765849278	-0.07591138478337855	0.49972963837420614	-0.016658141435348495	-0.10316607511776243	0.5162545643330643	-0.014549665361079489	-0.11027108396353419	0.5283243764444386	0.0027818077761337934	-0.1239074143896487	0.4908721941962101	0.022063331732884883	-0.11764698527091372	0.5020594323940625	-0.017910121961050685	-0.08943560907313203	0.5193826755879201	-0.013664553201156338	-0.09257891802254681	0.5376520859161101	0.006177974689365651	-0.10362030757160623	0.5017474158360148	0.032026707926063436	-0.09738768553128097	0.5030938507317069	-0.008664710741946746	-0.07566933910896179	0.5210686454765588	-0.007301064490932596	-0.07588664714502913	0.5414669530677296	0.005753882264301069	-0.08168814623009368	0.5129960772466249	0.03396401221814693	-0.07636662088801638	0.5085087042838821	-0.009654100148930755	-0.06025340487602204	0.5255529253766882	-0.009285021433850016	-0.061789083306428294	0.5405600415557933	0.005379941070798089	-0.06252213018358516	0.5147039070769005	0.02899871536783194	-0.05389095057039234	0.4622830810018608	-0.023011742144276925	-0.051989820119430985
10	0.3666666666666651	0.5069924687163303	-0.009177791567158144	-0.16317736903031205	0.49850016972851985	-0.014777749310053379	-0.14257345359708856	0.47949514847381447	-0.0256659621418599	-0.12045839111837325	0.4774741287221548	-0.027158910374413314	-0.07592102944597151	0.49971219049800963	-0.016568295964673574	-0.10318817295332311	0.5162413016199948	-0.0144464069725182	-0.1102794403028195	0.5283151495626368	0.0028928839290442987	-0.12390225278368971	0.49084716920186566	0.022133255470771163	-0.11760982522183622	0.502030468809768	-0.01782277140307753	-0.08946022851547486	0.5193577390495734	-0.013575122222295066	-0.09257843031679486	0.5376386026602854	0.006268250207746684	-0.10359932620820061	0.5017209954560753	0.032090811811253284	-0.09733284984925794	0.5031171809726336	-0.008645736384617186	-0.07563617611992052	0.5210881692152801	-0.007238923982785805	-0.075890066743446	0.5414789413635478	0.005837323324863197	-0.08167004481837242	0.5129737075096049	0.03400625493370635	-0.0763143218094452	0.5085059543020214	-0.00962387608162929	-0.060250458058250245	0.5255505475018311	-0.009258257198871855	-0.0617828305604744	0.5405550472196424	0.005409836135517487	-0.06250674019008784	0.5146933081914177	0.02901107463365382	-0.053844439872615724	0.462283081001861	-0.023011742144276925	-0.051989820119430985
11	0.39999999999999825	0.5068587803467053	-0.009019730343764243	-0.1632249411448503	0.49842892896173063	-0.014653762932147374	-0.14260467726631876	0.4794783467513617	-0.025565050467318495	-0.12045429943177893	0.4774937065152641	-0.02710972899528097	-0.07591706589198083	0.49972406237177736	-0.016462314798742606	-0.10318992445622249	0.5162636373511359	-0.014329961124324275	-0.11025360107037824	0.5283484645300239	0.003011170241201344	-0.123864330221309	0.4908586754494244	0.02220385421583948	-0.1175561854431808	0.5020533139195488	-0.017732526052569586	-0.08944302232995294	0.5193797615342104	-0.013478009126189683	-0.09255642862845131	0.5376664222054803	0.006372996165470157	-0.10355393654635381	0.5017208952967634	0.03215016371970736	-0.09726071407011072	0.503123773726241	-0.008593303603188107	-0.07562303332057618	0.5210952179889102	-0.007189539476319173	-0.07586101943338774	0.5414849802495622	0.005897292651586117	-0.08162056792351469	0.5129624932035796	0.034045210247053315	-0.07624624919919759	0.5085050118426087	-0.009599407825093609	-0.06023232667707962	0.5255497293610509	-0.009240243242497281	-0.06176484275174621	0.5405471395607646	0.005436276811403129	-0.06246446079681628	0.5146812936178563	0.029025384358826622	-0.053781404320331294	0.4622830810018609	-0.023011742144276925	-0.051989820119430985
12	0.43333333333333146	0.5068445718249637	-0.008971300845964758	-0.16323194159502402	0.4984122447562557	-0.01461672724928409	-0.1426158066291522	0.479476446524417	-0.02552969825795559	-0.1204536179040514	0.47749857623639935	-0.02709346672903057	-0.07591674938714005	0.49969782612683344	-0.01632435411540767	-0.10321901386666849	0.5162503151030207	-0.01422360994278793	-0.11026188136608983	0.5283489360159082	0.003131943212604571	-0.12384193952784261	0.49083352182863127	0.02227034961654728	-0.11752124394313085	0.502033458297924	-0.017631705429960176	-0.08944527034748023	0.519365374701844	-0.013378058944200633	-0.09252928807468641	0.537667186983318	0.006476512073030127	-0.10349510892564978	0.501696249399063	0.03221769744263747	-0.09719979748957741	0.5031401206892326	-0.008577478913016412	-0.07559195857596229	0.5211074519265503	-0.007121428414891717	-0.07582631974046122	0.5414911663833626	0.005988429741456303	-0.08155482592127089	0.5129357531165255	0.03410104511372691	-0.07617058371916596	0.5085111612057944	-0.009566763745545215	-0.06019281722467529	0.525556678700873	-0.00919507664502972	-0.061713403303883196	0.5405374873014346	0.00549935688053127	-0.06239238492086846	0.5146503370117405	0.029059467801141547	-0.05369410495944271	0.4622830810018609	-0.023011742144276925	-0.051989820119430985
13	0.4666666666666647	0.506915821416812	-0.008911310372927916	-0.16320134463317454	0.49845747968639653	-0.014567712684187106	-0.1425988795363785	0.47951552530249997	-0.02547528108777708	-0.12043929209348192	0.4775266962844916	-0.027064299241440493	-0.07590380533915914	0.4997396820819452	-0.016243547883768472	-0.10321301177597081	0.5162968535951683	-0.014126995732463454	-0.11024012202645894	0.5284017865525275	0.003233746920769942	-0.12380791645392758	0.49086178652644197	0.022319750388012594	-0.1174747526561164	0.5020423637044411	-0.017571289246224864	-0.08943381939361827	0.5193802010414007	-0.013318019020680638	-0.09248489934432919	0.5376941704737517	0.006538932937055875	-0.10342608449855517	0.5017078966205806	0.03226032150761304	-0.09713750873237509	0.5031805496264619	-0.008538615844002728	-0.07559652809788953	0.5211486816590265	-0.007086432395971953	-0.07578990465693936	0.5415158758585986	0.0060578700166252775	-0.08149820506276134	0.512926096321338	0.034134912978572296	-0.07611071970094158	0.5085365992130786	-0.009549599869233871	-0.060189835285611504	0.5255837623614817	-0.009163051751796103	-0.06168810400137309	0.5405512219039466	0.005545879782036023	-0.06234727543409724	0.5146394628636793	0.029072415302988097	-0.05363140939448191	0.4622830810018608	-0.023011742144276925	-0.051989820119430985
